<?xml version="1.0" encoding="UTF-8" standalone="no"?>
<!-- Generator: Adobe Illustrator 19.2.1, SVG Export Plug-In . SVG Version: 6.00 Build 0)  -->

<svg
   xmlns:dc="http://purl.org/dc/elements/1.1/"
   xmlns:cc="http://creativecommons.org/ns#"
   xmlns:rdf="http://www.w3.org/1999/02/22-rdf-syntax-ns#"
   xmlns:svg="http://www.w3.org/2000/svg"
   xmlns="http://www.w3.org/2000/svg"
   xmlns:sodipodi="http://sodipodi.sourceforge.net/DTD/sodipodi-0.dtd"
   xmlns:inkscape="http://www.inkscape.org/namespaces/inkscape"
   version="1.1"
   id="Layer_1"
   x="0px"
   y="0px"
   viewBox="0 0 64 64"
   style="enable-background:new 0 0 64 64;"
   xml:space="preserve"
   inkscape:version="0.91 r13725"
   sodipodi:docname="3D.svg"
   inkscape:export-filename="C:\dev\web\cs\apps\vmg\public\images\3D.png"
   inkscape:export-xdpi="39.375"
   inkscape:export-ydpi="39.375"><metadata
     id="metadata9"><rdf:RDF><cc:Work
         rdf:about=""><dc:format>image/svg+xml</dc:format><dc:type
           rdf:resource="http://purl.org/dc/dcmitype/StillImage" /></cc:Work></rdf:RDF></metadata><defs
     id="defs7" /><sodipodi:namedview
     pagecolor="#ffffff"
     bordercolor="#666666"
     borderopacity="1"
     objecttolerance="10"
     gridtolerance="10"
     guidetolerance="10"
     inkscape:pageopacity="0"
     inkscape:pageshadow="2"
     inkscape:window-width="730"
     inkscape:window-height="480"
     id="namedview5"
     showgrid="false"
     inkscape:zoom="3.6875"
     inkscape:cx="32"
     inkscape:cy="32"
     inkscape:window-x="0"
     inkscape:window-y="0"
     inkscape:window-maximized="0"
     inkscape:current-layer="Layer_1" /><path
     d="M62.2,52.6l-8.8-5.2v-22c0,0,0,0,0,0c0-0.2,0-0.3-0.1-0.5c0,0,0,0,0-0.1c0-0.1-0.1-0.2-0.1-0.4c0,0,0-0.1-0.1-0.1  c-0.1-0.1-0.1-0.2-0.2-0.3c0,0-0.1-0.1-0.1-0.1c-0.1-0.1-0.2-0.2-0.3-0.3l-18.5-11V3.9C33.9,2.9,33.1,2,32,2c-1.1,0-1.9,0.9-1.9,1.9  v8.8l-18.5,11c-0.1,0.1-0.2,0.2-0.4,0.3c0,0,0,0.1-0.1,0.1c-0.1,0.1-0.2,0.2-0.2,0.3c0,0,0,0.1-0.1,0.1c-0.1,0.1-0.1,0.2-0.2,0.4  c0,0,0,0,0,0.1c0,0.1-0.1,0.3-0.1,0.5c0,0,0,0,0,0v22l-8.8,5.2c-0.9,0.5-1.2,1.7-0.7,2.7c0.4,0.6,1,0.9,1.7,0.9c0.3,0,0.7-0.1,1-0.3  l8.8-5.2l18.5,11c0,0,0,0,0,0c0,0,0,0,0,0c0.1,0.1,0.2,0.1,0.3,0.1c0.1,0,0.1,0,0.2,0.1c0.2,0,0.3,0.1,0.5,0.1s0.3,0,0.5-0.1  c0,0,0.1,0,0.1-0.1c0.1,0,0.2-0.1,0.3-0.1c0,0,0,0,0,0c0,0,0,0,0,0l18.5-11l8.8,5.2c0.3,0.2,0.6,0.3,1,0.3c0.7,0,1.3-0.3,1.7-0.9  C63.4,54.4,63.1,53.2,62.2,52.6z M30.1,56.7l-15.6-9.3V28.8L30.1,38V56.7z M32,34.7l-15.7-9.3L32,16l15.7,9.3L32,34.7z M49.6,47.4  l-15.6,9.3V38l15.6-9.3V47.4z"
     id="path3" /></svg>