<?xml version="1.0" encoding="UTF-8" standalone="no"?>
<svg
   xmlns:dc="http://purl.org/dc/elements/1.1/"
   xmlns:cc="http://creativecommons.org/ns#"
   xmlns:rdf="http://www.w3.org/1999/02/22-rdf-syntax-ns#"
   xmlns:svg="http://www.w3.org/2000/svg"
   xmlns="http://www.w3.org/2000/svg"
   xmlns:sodipodi="http://sodipodi.sourceforge.net/DTD/sodipodi-0.dtd"
   xmlns:inkscape="http://www.inkscape.org/namespaces/inkscape"
   version="1.1"
   x="0px"
   y="0px"
   viewBox="0 0 100 100"
   enable-background="new 0 0 100 100"
   xml:space="preserve"
   id="svg2"
   inkscape:version="0.91 r13725"
   sodipodi:docname="wall.svg"
   inkscape:export-filename="C:\dev\web\cs\apps\vmg\public\images\wall.png"
   inkscape:export-xdpi="28.799999"
   inkscape:export-ydpi="28.799999"><metadata
     id="metadata32"><rdf:RDF><cc:Work
         rdf:about=""><dc:format>image/svg+xml</dc:format><dc:type
           rdf:resource="http://purl.org/dc/dcmitype/StillImage" /></cc:Work></rdf:RDF></metadata><defs
     id="defs30" /><sodipodi:namedview
     pagecolor="#ffffff"
     bordercolor="#666666"
     borderopacity="1"
     objecttolerance="10"
     gridtolerance="10"
     guidetolerance="10"
     inkscape:pageopacity="0"
     inkscape:pageshadow="2"
     inkscape:window-width="804"
     inkscape:window-height="480"
     id="namedview28"
     showgrid="false"
     inkscape:zoom="2.36"
     inkscape:cx="-36.440678"
     inkscape:cy="50"
     inkscape:window-x="0"
     inkscape:window-y="0"
     inkscape:window-maximized="0"
     inkscape:current-layer="svg2" /><path
     d="M48.976,15.331c0,1.423-1.177,2.577-2.627,2.577H20.002c-1.449,0-2.627-1.154-2.627-2.577V2.516  c0-1.423,1.178-2.577,2.627-2.577h26.347c1.45,0,2.627,1.154,2.627,2.577V15.331z"
     id="path4" /><path
     d="M83.198,15.331c0,1.423-1.175,2.577-2.626,2.577H54.225c-1.45,0-2.624-1.154-2.624-2.577V2.516  c0-1.423,1.174-2.577,2.624-2.577h26.348c1.451,0,2.626,1.154,2.626,2.577V15.331z"
     id="path6" /><path
     d="M48.976,56.395c0,1.424-1.177,2.577-2.627,2.577H20.002c-1.449,0-2.627-1.153-2.627-2.577V43.581  c0-1.423,1.178-2.577,2.627-2.577h26.347c1.45,0,2.627,1.154,2.627,2.577V56.395z"
     id="path8" /><path
     d="M83.198,56.395c0,1.424-1.175,2.577-2.626,2.577H54.225c-1.45,0-2.624-1.153-2.624-2.577V43.581  c0-1.423,1.174-2.577,2.624-2.577h26.348c1.451,0,2.626,1.154,2.626,2.577V56.395z"
     id="path10" /><path
     d="M31.601,35.88c0,1.423-1.177,2.577-2.627,2.577H2.627C1.178,38.458,0,37.304,0,35.88V23.065  c0-1.423,1.178-2.577,2.627-2.577h26.347c1.45,0,2.627,1.154,2.627,2.577V35.88z"
     id="path12" /><path
     d="M65.823,35.88c0,1.423-1.175,2.577-2.626,2.577H36.85c-1.45,0-2.624-1.154-2.624-2.577V23.065  c0-1.423,1.174-2.577,2.624-2.577h26.348c1.451,0,2.626,1.154,2.626,2.577V35.88z"
     id="path14" /><path
     d="M100.012,35.88c0,1.423-1.176,2.577-2.628,2.577H71.037c-1.45,0-2.624-1.154-2.624-2.577V23.065  c0-1.423,1.174-2.577,2.624-2.577h26.347c1.452,0,2.628,1.154,2.628,2.577V35.88z"
     id="path16" /><path
     d="M48.976,97.418c0,1.424-1.177,2.577-2.627,2.577H20.002c-1.449,0-2.627-1.153-2.627-2.577V84.604  c0-1.423,1.178-2.577,2.627-2.577h26.347c1.45,0,2.627,1.154,2.627,2.577V97.418z"
     id="path18" /><path
     d="M83.198,97.418c0,1.424-1.175,2.577-2.626,2.577H54.225c-1.45,0-2.624-1.153-2.624-2.577V84.604  c0-1.423,1.174-2.577,2.624-2.577h26.348c1.451,0,2.626,1.154,2.626,2.577V97.418z"
     id="path20" /><path
     d="M31.601,76.904c0,1.423-1.177,2.577-2.627,2.577H2.627C1.178,79.481,0,78.327,0,76.904V64.089  c0-1.423,1.178-2.576,2.627-2.576h26.347c1.45,0,2.627,1.153,2.627,2.576V76.904z"
     id="path22" /><path
     d="M65.823,76.904c0,1.423-1.175,2.577-2.626,2.577H36.85c-1.45,0-2.624-1.154-2.624-2.577V64.089  c0-1.423,1.174-2.576,2.624-2.576h26.348c1.451,0,2.626,1.153,2.626,2.576V76.904z"
     id="path24" /><path
     d="M100.012,76.904c0,1.423-1.176,2.577-2.628,2.577H71.037c-1.45,0-2.624-1.154-2.624-2.577V64.089  c0-1.423,1.174-2.576,2.624-2.576h26.347c1.452,0,2.628,1.153,2.628,2.576V76.904z"
     id="path26" /></svg>