<?xml version="1.0" encoding="UTF-8" standalone="no"?>
<svg
   xmlns:dc="http://purl.org/dc/elements/1.1/"
   xmlns:cc="http://creativecommons.org/ns#"
   xmlns:rdf="http://www.w3.org/1999/02/22-rdf-syntax-ns#"
   xmlns:svg="http://www.w3.org/2000/svg"
   xmlns="http://www.w3.org/2000/svg"
   xmlns:sodipodi="http://sodipodi.sourceforge.net/DTD/sodipodi-0.dtd"
   xmlns:inkscape="http://www.inkscape.org/namespaces/inkscape"
   version="1.1"
   x="0px"
   y="0px"
   viewBox="0 0 100 100"
   enable-background="new 0 0 100 100"
   xml:space="preserve"
   id="svg2"
   inkscape:version="0.91 r13725"
   sodipodi:docname="aerialway.svg"
   width="100"
   height="100"
   inkscape:export-filename="C:\dev\web\cs\apps\vmg\public\images\osm\aerialway.png"
   inkscape:export-xdpi="21.6"
   inkscape:export-ydpi="21.6"><metadata
     id="metadata16"><rdf:RDF><cc:Work
         rdf:about=""><dc:format>image/svg+xml</dc:format><dc:type
           rdf:resource="http://purl.org/dc/dcmitype/StillImage" /><dc:title></dc:title></cc:Work></rdf:RDF></metadata><defs
     id="defs14" /><sodipodi:namedview
     pagecolor="#ffffff"
     bordercolor="#666666"
     borderopacity="1"
     objecttolerance="10"
     gridtolerance="10"
     guidetolerance="10"
     inkscape:pageopacity="0"
     inkscape:pageshadow="2"
     inkscape:window-width="1280"
     inkscape:window-height="697"
     id="namedview12"
     showgrid="false"
     inkscape:zoom="1.888"
     inkscape:cx="50"
     inkscape:cy="62.5"
     inkscape:window-x="-8"
     inkscape:window-y="-8"
     inkscape:window-maximized="1"
     inkscape:current-layer="svg2" /><g
     transform="matrix(-0.99670679,0,0,0.99670679,100.15364,1.2448962)"
     id="g4"><path
       inkscape:connector-curvature="0"
       d="m 92.178,43.028 0,-5.709 -84.355,-34.565 0,5.708 34.664,14.205 0,20.272 -12.233,0 c -9.229,0 -16.711,7.48 -16.711,16.71 l 0,20.886 c 0,9.229 7.482,16.711 16.711,16.711 l 28.406,0 c 9.229,0 16.709,-7.482 16.709,-16.711 l 0,-20.886 c 0,-9.229 -7.48,-16.71 -16.709,-16.71 l -11.648,0 0,-18.418 45.166,18.507 z M 32.509,74.8 l -13.758,0 0,-18.826 13.758,0 0,18.826 z m 23.893,-18.826 13.758,0 0,18.826 -13.758,0 0,-18.826 z m -5.066,18.826 -13.758,0 0,-18.826 13.758,0 0,18.826 z"
       id="path6" /></g></svg>