<?xml version="1.0" encoding="UTF-8" standalone="no"?>
<svg
   xmlns:dc="http://purl.org/dc/elements/1.1/"
   xmlns:cc="http://creativecommons.org/ns#"
   xmlns:rdf="http://www.w3.org/1999/02/22-rdf-syntax-ns#"
   xmlns:svg="http://www.w3.org/2000/svg"
   xmlns="http://www.w3.org/2000/svg"
   xmlns:sodipodi="http://sodipodi.sourceforge.net/DTD/sodipodi-0.dtd"
   xmlns:inkscape="http://www.inkscape.org/namespaces/inkscape"
   viewBox="0 0 80 80"
   version="1.1"
   x="0px"
   y="0px"
   id="svg2"
   inkscape:version="0.91 r13725"
   sodipodi:docname="gate.svg"
   inkscape:export-filename="C:\dev\web\cs\apps\vmg\public\images\osm\gate.png"
   inkscape:export-xdpi="27"
   inkscape:export-ydpi="27">
  <metadata
     id="metadata38">
    <rdf:RDF>
      <cc:Work
         rdf:about="">
        <dc:format>image/svg+xml</dc:format>
        <dc:type
           rdf:resource="http://purl.org/dc/dcmitype/StillImage" />
      </cc:Work>
    </rdf:RDF>
  </metadata>
  <defs
     id="defs36" />
  <sodipodi:namedview
     pagecolor="#ffffff"
     bordercolor="#666666"
     borderopacity="1"
     objecttolerance="10"
     gridtolerance="10"
     guidetolerance="10"
     inkscape:pageopacity="0"
     inkscape:pageshadow="2"
     inkscape:window-width="690"
     inkscape:window-height="480"
     id="namedview34"
     showgrid="false"
     inkscape:zoom="2.95"
     inkscape:cx="40"
     inkscape:cy="40"
     inkscape:window-x="0"
     inkscape:window-y="0"
     inkscape:window-maximized="0"
     inkscape:current-layer="svg2" />
  <path
     style="fill:#000000;fill-opacity:1;stroke:none"
     d="m 12.560465,15.871579 -3.7956281,6.149878 c -0.00712,3.84e-4 -0.043428,-0.0055 -0.048049,0 -0.00443,0.0055 0,0.03959 0,0.04805 l 0,2.59448 c 0.9335035,0.845917 1.5374701,2.106506 1.5374701,3.507352 0,1.400845 -0.6039666,2.661434 -1.5374701,3.507353 l 0,44.106157 c 0,0.01686 0.033958,0.04805 0.048049,0.04805 l 7.6393011,0 c 0.01404,0 0.04813,-0.03111 0.04805,-0.04805 l 0,-44.538571 c -0.705381,-0.816752 -1.153103,-1.890657 -1.153103,-3.074939 0,-1.184282 0.447722,-2.258188 1.153103,-3.07494 l 0,-3.026892 c 0,-0.0085 -0.04343,-0.04247 -0.04805,-0.04805 l -3.843673,-6.149878 z"
     id="path4"
     inkscape:connector-curvature="0" />
  <path
     d="m 23.636706,9.4719426 -3.795628,6.1498784 c -0.0071,3.84e-4 -0.04343,-0.0055 -0.04805,0 -0.0044,0.0055 0,0.03959 0,0.04805 l 0,2.594478 c 0.933503,0.845919 1.53747,2.106508 1.53747,3.507354 0,1.400845 -0.603967,2.661434 -1.53747,3.507353 l 0,50.553839 c 0,0.01691 0.03396,0.04805 0.04805,0.04805 l 7.639301,0 c 0.01404,0 0.04813,-0.03111 0.04805,-0.04805 l 0,-50.986253 c -0.70538,-0.816752 -1.153102,-1.890658 -1.153102,-3.074939 0,-1.184282 0.447722,-2.258188 1.153102,-3.07494 l 0,-3.026892 c 0,-0.0085 -0.04343,-0.04247 -0.04805,-0.04805 z"
     style="fill:#000000;fill-opacity:1;stroke:none"
     id="path6"
     inkscape:connector-curvature="0" />
  <path
     style="fill:#000000;fill-opacity:1;stroke:none"
     d="m 34.760993,2.9762143 -3.795629,6.1498786 c -0.0071,3.842e-4 -0.04343,-0.00551 -0.04805,0 -0.0044,0.00551 0,0.039586 0,0.048049 l 0,2.5944801 c 0.933503,0.845918 1.537468,2.106507 1.537468,3.507353 0,1.400845 -0.603965,2.661434 -1.537468,3.507352 l 0,57.001522 c 0,0.01691 0.03396,0.04805 0.04805,0.04805 l 7.639302,0 c 0.01404,0 0.04813,-0.03111 0.04805,-0.04805 l 0,-57.433936 c -0.70538,-0.816752 -1.153102,-1.890656 -1.153102,-3.074938 0,-1.184282 0.447722,-2.258188 1.153102,-3.07494 l 0,-3.0268931 c 0,-0.00846 -0.04343,-0.042474 -0.04805,-0.048049 z"
     id="path8"
     inkscape:connector-curvature="0" />
  <path
     d="m 45.789186,3.0242603 -3.795627,6.1498786 c -0.0071,3.842e-4 -0.04344,-0.00551 -0.04805,0 -0.0044,0.00551 0,0.039586 0,0.048049 l 0,2.5944791 c 0.933503,0.845919 1.537468,2.106508 1.537468,3.507354 0,1.400845 -0.603965,2.661434 -1.537468,3.507352 l 0,57.001522 c 0,0.01691 0.03396,0.04805 0.04805,0.04805 l 7.639302,0 c 0.01402,0 0.04813,-0.03111 0.04805,-0.04805 l 0,-57.433936 c -0.705381,-0.816752 -1.153102,-1.890657 -1.153102,-3.074938 0,-1.184282 0.447721,-2.258188 1.153102,-3.07494 l 0,-3.0268931 c 0,-0.00846 -0.04343,-0.042474 -0.04805,-0.048049 z"
     style="fill:#000000;fill-opacity:1;stroke:none"
     id="path10"
     inkscape:connector-curvature="0" />
  <path
     style="fill:#000000;fill-opacity:1;stroke:none"
     d="m 56.913473,9.4238966 -3.795627,6.1498784 c -0.0071,3.84e-4 -0.04344,-0.0055 -0.04805,0 -0.0044,0.0055 0,0.03959 0,0.04805 l 0,2.59448 c 0.933503,0.845917 1.537468,2.106506 1.537468,3.507352 0,1.400845 -0.603965,2.661434 -1.537468,3.507353 l 0,50.553839 c 0,0.01691 0.03396,0.04805 0.04805,0.04805 l 7.639302,0 c 0.01402,0 0.04813,-0.03111 0.04805,-0.04805 l 0,-50.986253 c -0.705382,-0.816752 -1.153102,-1.890657 -1.153102,-3.074939 0,-1.184282 0.44772,-2.258188 1.153102,-3.07494 l 0,-3.026892 c 0,-0.0085 -0.04343,-0.04247 -0.04805,-0.04805 z"
     id="path12"
     inkscape:connector-curvature="0" />
  <path
     d="m 67.989714,15.919625 -3.795627,6.149878 c -0.0071,3.84e-4 -0.04343,-0.0055 -0.04805,0 -0.0044,0.0055 0,0.03959 0,0.04805 l 0,2.594479 c 0.933503,0.845918 1.537468,2.106507 1.537468,3.507353 0,1.400845 -0.603965,2.661434 -1.537468,3.507353 l 0,44.106157 c 0,0.01691 0.03396,0.04805 0.04805,0.04805 l 7.639302,0 c 0.01402,0 0.04813,-0.03111 0.04805,-0.04805 l 0,-44.538571 c -0.705382,-0.816752 -1.153102,-1.890658 -1.153102,-3.074939 0,-1.184282 0.44772,-2.258188 1.153102,-3.07494 l 0,-3.026892 c 0,-0.0085 -0.04343,-0.04247 -0.04805,-0.04805 l -3.843675,-6.149878 z"
     style="fill:#000000;fill-opacity:1;stroke:none"
     id="path14"
     inkscape:connector-curvature="0" />
  <path
     style="fill:#000000;fill-opacity:1;stroke:none"
     d="m 6.5958971,34.321214 66.6191209,0 c 0.0054,0 0.0095,0.006 0.0095,0.01354 l 0,5.320633 c 0,0.0075 -0.0043,0.01354 -0.0095,0.01354 l -66.6191209,0 c -0.00537,0 -0.00967,-0.006 -0.00967,-0.01354 l 0,-5.320633 c 0,-0.0075 0.0043,-0.01354 0.00967,-0.01354 z"
     id="path16"
     inkscape:connector-curvature="0" />
  <path
     style="fill:#000000;fill-opacity:1;stroke:none"
     d="m 6.5959092,63.533134 66.6958238,0 c 0.0054,0 0.0095,0.006 0.0095,0.01354 l 0,5.320632 c 0,0.0075 -0.0043,0.01354 -0.0095,0.01354 l -66.6958238,0 c -0.00537,0 -0.00967,-0.006 -0.00967,-0.01354 l 0,-5.320632 c 2.7e-6,-0.0075 0.0043,-0.01354 0.00967,-0.01354 z"
     id="path18"
     inkscape:connector-curvature="0" />
  <path
     d="M 9.17029,64.698177 69.520681,36.485811 c 0.0048,-0.0023 0.01115,0.0015 0.01437,0.0082 l 2.253222,4.819972 c 0.0032,0.0069 0.0019,0.01409 -0.003,0.01631 L 11.434979,69.542681 c -0.0048,0.0023 -0.01128,-0.0013 -0.01449,-0.0082 L 9.1672636,64.714515 c -0.00322,-0.0069 -0.00188,-0.01409 0.00309,-0.01636 z"
     style="fill:#000000;fill-opacity:1;stroke:none"
     id="path20"
     inkscape:connector-curvature="0" />
  <path
     style="color:#000000;display:inline;overflow:visible;visibility:visible;fill:#000000;stroke:none;marker:none;enable-background:accumulate"
     d="m 4.4125399,33.453307 2.3897529,0 0,7.083528 -2.3897529,0 z"
     visibility="visible"
     display="inline"
     overflow="visible"
     id="path22"
     inkscape:connector-curvature="0" />
  <path
     style="color:#000000;display:inline;overflow:visible;visibility:visible;fill:#000000;fill-opacity:1;fill-rule:nonzero;stroke:none;marker:none;enable-background:accumulate"
     d="m 5.5795919,32.696616 c 0.297668,0 0.5373069,0.239639 0.5373069,0.537307 l 0,7.522296 c 0,0.297668 -0.2396389,0.537307 -0.5373069,0.537307 -0.297668,0 -0.5373068,-0.239639 -0.5373068,-0.537307 l 0,-7.522296 c 0,-0.297668 0.2396388,-0.537307 0.5373068,-0.537307 z"
     visibility="visible"
     display="inline"
     overflow="visible"
     id="path24"
     inkscape:connector-curvature="0" />
  <path
     d="m 4.4125399,62.665227 2.3897529,0 0,7.083528 -2.3897529,0 z"
     style="color:#000000;display:inline;overflow:visible;visibility:visible;fill:#000000;stroke:none;marker:none;enable-background:accumulate"
     visibility="visible"
     display="inline"
     overflow="visible"
     id="path26"
     inkscape:connector-curvature="0" />
  <path
     d="m 5.5795919,61.908536 c 0.297668,0 0.5373069,0.239639 0.5373069,0.537307 l 0,7.522296 c 0,0.297668 -0.2396389,0.537307 -0.5373069,0.537307 -0.297668,0 -0.5373068,-0.239639 -0.5373068,-0.537307 l 0,-7.522296 c 0,-0.297668 0.2396388,-0.537307 0.5373068,-0.537307 z"
     style="color:#000000;display:inline;overflow:visible;visibility:visible;fill:#000000;fill-opacity:1;fill-rule:nonzero;stroke:none;marker:none;enable-background:accumulate"
     visibility="visible"
     display="inline"
     overflow="visible"
     id="path28"
     inkscape:connector-curvature="0" />
  <path
     style="color:#000000;display:inline;overflow:visible;visibility:visible;fill:#000000;fill-opacity:1;fill-rule:nonzero;stroke:none;marker:none;enable-background:accumulate"
     d="m 72.246142,36.452568 2.712517,0 0,1.085007 -2.712517,0 z"
     visibility="visible"
     display="inline"
     overflow="visible"
     id="path30"
     inkscape:connector-curvature="0" />
  <path
     style="color:#000000;display:inline;overflow:visible;visibility:visible;fill:#000000;fill-opacity:1;fill-rule:nonzero;stroke:none;marker:none;enable-background:accumulate"
     d="m 76.043687,36.99507 c 0,0.599233 -0.485774,1.085007 -1.085006,1.085007 -0.599233,0 -1.085007,-0.485774 -1.085007,-1.085007 0,-0.599232 0.485774,-1.085006 1.085007,-1.085006 0.599232,0 1.085006,0.485774 1.085006,1.085006 z"
     visibility="visible"
     display="inline"
     overflow="visible"
     id="path32"
     inkscape:connector-curvature="0" />
</svg>
