<?xml version="1.0" encoding="UTF-8" standalone="no"?>
<svg
   xmlns:dc="http://purl.org/dc/elements/1.1/"
   xmlns:cc="http://creativecommons.org/ns#"
   xmlns:rdf="http://www.w3.org/1999/02/22-rdf-syntax-ns#"
   xmlns:svg="http://www.w3.org/2000/svg"
   xmlns="http://www.w3.org/2000/svg"
   xmlns:sodipodi="http://sodipodi.sourceforge.net/DTD/sodipodi-0.dtd"
   xmlns:inkscape="http://www.inkscape.org/namespaces/inkscape"
   version="1.1"
   x="0px"
   y="0px"
   viewBox="0 0 100 100"
   enable-background="new 0 0 100 83.333"
   xml:space="preserve"
   id="svg2"
   inkscape:version="0.91 r13725"
   sodipodi:docname="government.svg"
   width="100"
   height="100"
   inkscape:export-filename="C:\dev\web\cs\apps\vmg\public\images\osm\government.png"
   inkscape:export-xdpi="21.6"
   inkscape:export-ydpi="21.6"><metadata
     id="metadata16"><rdf:RDF><cc:Work
         rdf:about=""><dc:format>image/svg+xml</dc:format><dc:type
           rdf:resource="http://purl.org/dc/dcmitype/StillImage" /><dc:title></dc:title></cc:Work></rdf:RDF></metadata><defs
     id="defs14" /><sodipodi:namedview
     pagecolor="#ffffff"
     bordercolor="#666666"
     borderopacity="1"
     objecttolerance="10"
     gridtolerance="10"
     guidetolerance="10"
     inkscape:pageopacity="0"
     inkscape:pageshadow="2"
     inkscape:window-width="1600"
     inkscape:window-height="871"
     id="namedview12"
     showgrid="false"
     inkscape:zoom="2.8320113"
     inkscape:cx="50"
     inkscape:cy="41.6665"
     inkscape:window-x="-9"
     inkscape:window-y="-9"
     inkscape:window-maximized="1"
     inkscape:current-layer="svg2" /><path
     d="m 23.257894,43.950352 5.556,0 0,38.889 8.333,0 0,-33.333 8.333,0 0,33.333 8.333,0 0,-33.333 8.334,0 0,33.333 8.333,0 0,-38.889 5.556,0 c 1.534,0 2.778,-1.243 2.778,-2.777 0,-0.927 -0.459,-1.742 -1.156,-2.246 l 0.002,-0.006 -0.04,-0.027 c -0.024,-0.016 -0.049,-0.031 -0.073,-0.047 l -26.511,-14.946 0,-4.378 c 4.895,2.45 8.925,-1.771 15.278,0.768 l 0,-9.674 c -6.354,-2.5390003 -10.384,1.681 -15.278,-0.7680003 l 0,-0.621 c 0,-0.768 -0.622,-1.389 -1.389,-1.389 -0.767,0 -1.389,0.621 -1.389,1.389 l 0,14.6730003 -26.511,14.945 c -0.024,0.016 -0.049,0.031 -0.073,0.047 l -0.039,0.027 0.001,0.006 c -0.697,0.504 -1.155,1.319 -1.155,2.246 -10e-4,1.535 1.243,2.778 2.777,2.778 z"
     id="path4"
     inkscape:connector-curvature="0" /><polygon
     points="79.167,83.333 73.611,77.778 26.389,77.778 20.833,83.333 "
     id="polygon6"
     transform="translate(-0.353106,7.8393517)" /><path
     d="m 73.257894,46.728352 0,36.111 1.15,0 0.813,0.814 5.555996,5.556 1.964,1.964 16.906,0 0,-44.445 -26.388996,0 z m 11.111996,29.166 -5.555996,0 0,-8.333 5.555996,0 0,8.333 z m 0,-13.888 -5.555996,0 0,-8.333 5.555996,0 0,8.333 z m 9.721,13.888 -5.556,0 0,-8.333 5.556,0 0,8.333 z m 0,-13.888 -5.556,0 0,-8.333 5.556,0 0,8.333 z"
     id="path8"
     inkscape:connector-curvature="0" /><path
     d="m 24.885894,82.839352 1.15,0 0,-36.11 -26.389,0 0,44.444 16.905,0 1.964,-1.964 5.556,-5.556 0.814,-0.814 z m -14.128,-6.945 -5.555,0 0,-8.333 5.556,0 0,8.333 z m 0,-13.888 -5.555,0 0,-8.333 5.556,0 0,8.333 z m 9.722,13.888 -5.556,0 0,-8.333 5.556,0 0,8.333 z m 0,-13.888 -5.556,0 0,-8.333 5.556,0 0,8.333 z"
     id="path10"
     inkscape:connector-curvature="0" /></svg>