<?xml version="1.0" encoding="UTF-8" standalone="no"?>
<svg
   xmlns:dc="http://purl.org/dc/elements/1.1/"
   xmlns:cc="http://creativecommons.org/ns#"
   xmlns:rdf="http://www.w3.org/1999/02/22-rdf-syntax-ns#"
   xmlns:svg="http://www.w3.org/2000/svg"
   xmlns="http://www.w3.org/2000/svg"
   xmlns:sodipodi="http://sodipodi.sourceforge.net/DTD/sodipodi-0.dtd"
   xmlns:inkscape="http://www.inkscape.org/namespaces/inkscape"
   version="1.1"
   x="0px"
   y="0px"
   viewBox="0 0 100 100"
   enable-background="new 0 0 100 100"
   xml:space="preserve"
   id="svg2"
   inkscape:version="0.91 r13725"
   sodipodi:docname="pin.svg"
   inkscape:export-filename="C:\dev\web\cs\apps\vmg\public\images\pin.png"
   inkscape:export-xdpi="21.6"
   inkscape:export-ydpi="21.6"><metadata
     id="metadata12"><rdf:RDF><cc:Work
         rdf:about=""><dc:format>image/svg+xml</dc:format><dc:type
           rdf:resource="http://purl.org/dc/dcmitype/StillImage" /></cc:Work></rdf:RDF></metadata><defs
     id="defs10" /><sodipodi:namedview
     pagecolor="#ffffff"
     bordercolor="#666666"
     borderopacity="1"
     objecttolerance="10"
     gridtolerance="10"
     guidetolerance="10"
     inkscape:pageopacity="0"
     inkscape:pageshadow="2"
     inkscape:window-width="690"
     inkscape:window-height="480"
     id="namedview8"
     showgrid="false"
     inkscape:zoom="2.36"
     inkscape:cx="50"
     inkscape:cy="50"
     inkscape:window-x="0"
     inkscape:window-y="0"
     inkscape:window-maximized="0"
     inkscape:current-layer="svg2" /><g
     id="g4"
     transform="matrix(1.4205429,0,0,1.4205429,-20.080923,-20.922008)"><path
       d="m 49.049,59.338 c 1.178,0 2.322,-0.127 3.451,-0.318 l 0,19.246 L 49.099,83 45.5,78.266 45.5,59 c 2.079,0.369 2.772,0.338 3.549,0.338 z M 31.46,46.336 C 29.912,43.465 29,40.196 29,36.699 29,25.543 37.953,16.5 49.001,16.5 60.048,16.5 69,25.543 69,36.699 c 0,3.59 -0.941,6.951 -2.57,9.871 -0.119,0.194 -0.223,0.191 -0.351,0.38 -0.037,0.066 -0.095,0.332 -0.134,0.397 -3.7,5.445 -9.901,9.014 -16.931,9.014 -7.452,0 -13.96,-4.022 -17.554,-10.025 z M 43.594,23.563 c -3.07,0 -5.559,2.514 -5.559,5.614 0,3.101 2.489,5.615 5.559,5.615 3.07,0 5.56,-2.515 5.56,-5.615 -0.001,-3.1 -2.49,-5.614 -5.56,-5.614 z"
       id="path6"
       inkscape:connector-curvature="0" /></g></svg>