<?xml version="1.0" encoding="UTF-8" standalone="no"?>
<svg
   xmlns:dc="http://purl.org/dc/elements/1.1/"
   xmlns:cc="http://creativecommons.org/ns#"
   xmlns:rdf="http://www.w3.org/1999/02/22-rdf-syntax-ns#"
   xmlns:svg="http://www.w3.org/2000/svg"
   xmlns="http://www.w3.org/2000/svg"
   xmlns:sodipodi="http://sodipodi.sourceforge.net/DTD/sodipodi-0.dtd"
   xmlns:inkscape="http://www.inkscape.org/namespaces/inkscape"
   version="1.1"
   x="0px"
   y="0px"
   viewBox="0 0 100 99.999999"
   enable-background="new 0 0 100 94.443"
   xml:space="preserve"
   id="svg2"
   inkscape:version="0.91 r13725"
   sodipodi:docname="place_of_worship.svg"
   width="100"
   height="100"
   inkscape:export-filename="C:\dev\web\cs\apps\vmg\public\images\osm\place_of_worship.png"
   inkscape:export-xdpi="21.6"
   inkscape:export-ydpi="21.6"><metadata
     id="metadata12"><rdf:RDF><cc:Work
         rdf:about=""><dc:format>image/svg+xml</dc:format><dc:type
           rdf:resource="http://purl.org/dc/dcmitype/StillImage" /><dc:title></dc:title></cc:Work></rdf:RDF></metadata><defs
     id="defs10" /><sodipodi:namedview
     pagecolor="#ffffff"
     bordercolor="#666666"
     borderopacity="1"
     objecttolerance="10"
     gridtolerance="10"
     guidetolerance="10"
     inkscape:pageopacity="0"
     inkscape:pageshadow="2"
     inkscape:window-width="730"
     inkscape:window-height="480"
     id="namedview8"
     showgrid="false"
     inkscape:zoom="2.4988617"
     inkscape:cx="50"
     inkscape:cy="47.2215"
     inkscape:window-x="0"
     inkscape:window-y="0"
     inkscape:window-maximized="0"
     inkscape:current-layer="svg2" /><path
     d="M 47.222,2.7557238 C 21.142,2.7557238 0,23.897724 0,49.977724 c 0,26.081 21.142,47.222001 47.222,47.222001 14.583,0 27.623,-6.627001 36.286,-17.014001 -5.661,3.686 -12.362,5.904 -19.62,5.904 -19.942,0 -36.11,-16.168 -36.11,-36.112 0,-19.944 16.167,-36.111 36.11,-36.111 7.258,0 13.959,2.219 19.62,5.903 C 74.845,9.3827236 61.805,2.7557238 47.222,2.7557238 Z"
     id="path4"
     inkscape:connector-curvature="0" /><polygon
     points="58.333,69.443 75,58.334 91.667,69.443 83.333,50 100,38.889 80.555,38.889 75,22.222 75,22.222 69.445,38.889 50,38.889 66.667,50 "
     id="polygon6"
     transform="translate(0,2.7557238)" /></svg>