<?xml version="1.0" encoding="UTF-8" standalone="no"?>
<svg
   xmlns:dc="http://purl.org/dc/elements/1.1/"
   xmlns:cc="http://creativecommons.org/ns#"
   xmlns:rdf="http://www.w3.org/1999/02/22-rdf-syntax-ns#"
   xmlns:svg="http://www.w3.org/2000/svg"
   xmlns="http://www.w3.org/2000/svg"
   xmlns:sodipodi="http://sodipodi.sourceforge.net/DTD/sodipodi-0.dtd"
   xmlns:inkscape="http://www.inkscape.org/namespaces/inkscape"
   xml:space="preserve"
   style="clip-rule:evenodd;fill-rule:evenodd;image-rendering:optimizeQuality;shape-rendering:geometricPrecision;text-rendering:geometricPrecision"
   viewBox="0 0 99.999998 99.999999"
   x="0px"
   y="0px"
   id="svg2"
   version="1.1"
   inkscape:version="0.91 r13725"
   sodipodi:docname="power.svg"
   width="100"
   height="100"
   inkscape:export-filename="C:\dev\web\cs\apps\vmg\public\images\osm\power.png"
   inkscape:export-xdpi="21.6"
   inkscape:export-ydpi="21.6"><metadata
     id="metadata50"><rdf:RDF><cc:Work
         rdf:about=""><dc:format>image/svg+xml</dc:format><dc:type
           rdf:resource="http://purl.org/dc/dcmitype/StillImage" /><dc:title></dc:title></cc:Work></rdf:RDF></metadata><sodipodi:namedview
     pagecolor="#ffffff"
     bordercolor="#666666"
     borderopacity="1"
     objecttolerance="10"
     gridtolerance="10"
     guidetolerance="10"
     inkscape:pageopacity="0"
     inkscape:pageshadow="2"
     inkscape:window-width="1280"
     inkscape:window-height="697"
     id="namedview48"
     showgrid="false"
     inkscape:zoom="5.28"
     inkscape:cx="50"
     inkscape:cy="50"
     inkscape:window-x="-8"
     inkscape:window-y="-8"
     inkscape:window-maximized="1"
     inkscape:current-layer="svg2" /><defs
     id="defs4"><style
       type="text/css"
       id="style6">
   
    .str0 {stroke:black;stroke-width:1.50665;stroke-linecap:round}
    .str1 {stroke:black;stroke-width:2.05897}
    .fil0 {fill:none}
    .fil1 {fill:black}
   
  </style></defs><symbol
     viewBox="-69.6086 -34.3992 24.6086 4.15318"
     id="symbol8"
     transform="translate(0,80.7218)"><path
       class="fil0 str0"
       d="m -68.7611,-32.6994 c 0,0 1.4019,1.84139 4.83384,1.69502 3.43194,-0.146372 4.51995,-1.4019 7.15662,-2.19717 4.56186,-1.33914 10.9232,0.753279 10.9232,0.753279"
       id="path10"
       inkscape:connector-curvature="0"
       style="fill:none;stroke:#000000;stroke-width:1.50664997;stroke-linecap:round" /><polygon
       class="fil0"
       points="-45,-34.3317 -69.6086,-34.3317 -69.6086,-30.3139 -45,-30.3139 "
       display="none"
       id="polygon12"
       style="display:none;fill:none" /></symbol><symbol
     viewBox="-65.5897 -50.1698 20.5897 19.9189"
     id="symbol14"
     transform="translate(0,80.7218)"><path
       class="fil1 str1"
       d="m -46.7789,-48.8035 c -1.3631,-1.3507 -6.27989,1.40218 -10.9827,6.14808 -4.70062,4.7459 -7.40821,9.6875 -6.04511,11.0382 1.3631,1.3507 6.27989,-1.40218 10.9805,-6.14808 4.70268,-4.74599 7.41028,-9.6875 6.04727,-11.0382 z"
       id="path16"
       inkscape:connector-curvature="0"
       style="fill:#000000;stroke:#000000;stroke-width:2.05896997" /><polygon
       class="fil0"
       points="-45,-48.4453 -65.5897,-48.4453 -65.5897,-31.9734 -45,-31.9734 "
       display="none"
       id="polygon18"
       style="display:none;fill:none" /></symbol><symbol
     viewBox="-69.6086 -47.751 24.6086 17.508"
     id="symbol20"
     transform="translate(0,80.7218)"><path
       class="fil1"
       d="m -51.8307,-47.191 c 0.162531,0 0.28767,0.223691 0.368372,0.300353 0.271041,0.397684 1.1193,2.26979 1.12982,4.48745 0.0072,1.57824 -1.18197,2.72103 -0.02461,3.8672 1.1566,1.14608 5.26985,5.21452 5.26985,5.21452 0,0 -1.01145,0.3105 -1.95601,1.19963 -0.944558,0.889128 1.09328,-1.10521 0.127394,-0.130307 -0.849388,0.771505 -1.22753,2.00918 -1.22753,2.00918 0,0 -4.11353,-4.07548 -5.27013,-5.22166 -1.15698,-1.14608 -2.2604,0.01015 -3.83826,0.01776 -2.21803,0.01015 -3.82586,-0.483835 -4.48378,-1.13095 -0.657921,-0.647117 -5.04917,-4.96433 -7.78579,-7.66591 0,0 2.32879,-0.06915 4.39369,-0.972742 2.06489,-0.903596 4.55913,-1.97451 4.55913,-1.97451 0,0 1.00788,-0.349582 2.34975,-0.505161 2.30963,-0.263807 6.38812,0.505161 6.38812,0.505161 z"
       id="path22"
       inkscape:connector-curvature="0"
       style="fill:#000000" /><polygon
       class="fil0"
       points="-45,-47.6824 -69.6086,-47.6824 -69.6086,-30.3116 -45,-30.3116 "
       display="none"
       id="polygon24"
       style="display:none;fill:none" /></symbol><symbol
     viewBox="-69.6086 -34.3992 24.6086 4.15318"
     id="symbol26"
     transform="translate(0,80.7218)"><path
       class="fil0 str0"
       d="m -68.7611,-32.6994 c 0,0 1.4019,1.84139 4.83384,1.69502 3.43194,-0.146372 4.51995,-1.4019 7.15662,-2.19717 4.56186,-1.33914 10.9232,0.753279 10.9232,0.753279"
       id="path28"
       inkscape:connector-curvature="0"
       style="fill:none;stroke:#000000;stroke-width:1.50664997;stroke-linecap:round" /><polygon
       class="fil0"
       points="-45,-34.3317 -69.6086,-34.3317 -69.6086,-30.3139 -45,-30.3139 "
       display="none"
       id="polygon30"
       style="display:none;fill:none" /></symbol><symbol
     viewBox="-69.6086 -34.3992 24.6086 4.15318"
     id="symbol32"
     transform="translate(0,80.7218)"><path
       class="fil0 str0"
       d="m -68.7611,-32.6994 c 0,0 1.4019,1.84139 4.83384,1.69502 3.43194,-0.146372 4.51995,-1.4019 7.15662,-2.19717 4.56186,-1.33914 10.9232,0.753279 10.9232,0.753279"
       id="path34"
       inkscape:connector-curvature="0"
       style="fill:none;stroke:#000000;stroke-width:1.50664997;stroke-linecap:round" /><polygon
       class="fil0"
       points="-45,-34.3317 -69.6086,-34.3317 -69.6086,-30.3139 -45,-30.3139 "
       display="none"
       id="polygon36"
       style="display:none;fill:none" /></symbol><g
     id="g38"
     transform="matrix(5.1163649,0,0,5.1163649,10.038035,1.1763455)"><path
       class="fil1"
       d="m 3.24686,2.66344 c 0,0.991532 -0.926896,1.73053 -1.72273,2.15236 C 1.052133,5.065891 0.535886,5.260646 0,5.407206 l 0,0.52489 C 0.61912,5.77229 1.21691,5.552732 1.76172,5.264028 2.424245,4.912849 3.10283,4.396226 3.47215,3.726088 c 0.223973,0.520287 0.5946,0.979131 1.01765,1.36977 0.621187,0.573461 1.39138,1.04189 2.18148,1.42266 l 0,-0.565758 C 6.003212,5.61417 5.35882,5.207655 4.83393,4.72307 4.251919,4.185779 3.75418,3.48661 3.75418,2.66344 l -0.507322,0 z"
       id="path40"
       inkscape:connector-curvature="0"
       style="fill:#000000" /><path
       class="fil1"
       d="M 0,8.10503 C 1.11038,8.033911 2.21803,7.911214 3.31234,7.730364 4.60939,7.516068 5.92392,7.21609 7.1786,6.791161 l 0,-2.73259 -1.90246,-1.39513 5.32688,0 -1.90246,1.39513 0,2.13695 c 0.843469,-0.381713 1.68769,-0.865923 2.34467,-1.47245 0.582011,-0.537291 1.07975,-1.23646 1.07975,-2.05963 l 0.507322,0 c 0,0.991532 0.926802,1.73053 1.72273,2.15236 0.42709,0.226322 0.890538,0.407361 1.37193,0.548377 l 0,0.527333 C 15.16205,5.735744 14.617432,5.529058 14.117432,5.264029 13.454813,4.91285 12.776322,4.396227 12.407002,3.726089 c -0.223973,0.520287 -0.5946,0.979131 -1.01765,1.36977 -0.753842,0.695876 -1.72696,1.23711 -2.68881,1.65453 l 0,12.5278 -1.52197,0 0,-11.9522 c -1.23148,0.405106 -2.515,0.695313 -3.78359,0.904912 -1.12156,0.18536 -2.25692,0.310594 -3.39502,0.382464 l 0,-0.508355 z"
       id="path42"
       inkscape:connector-curvature="0"
       style="fill:#000000" /><path
       class="fil1"
       d="M 15.727,8.09488 C 14.66764,8.0225397 13.61109,7.902943 12.56686,7.73036 11.44361,7.544812 10.30721,7.294909 9.20792,6.955285 l 0,0.530339 c 1.07439,0.323277 2.18092,0.564348 3.27617,0.745293 1.07167,0.176999 2.15584,0.29932 3.24291,0.372506 l 0,-0.508543 z"
       id="path44"
       inkscape:connector-curvature="0"
       style="fill:#000000" /><polygon
       class="fil1"
       points="10.9835,0 11.9982,0 11.9982,1.01464 12.7591,1.01464 12.7591,0 13.7738,0 13.7738,1.01464 14.2811,1.01464 14.2811,2.15612 1.59806,2.14616 1.59806,1.01464 2.10539,1.01464 2.10539,0 3.12003,0 3.12003,1.01464 3.88101,1.01464 3.88101,0 4.89565,0 4.89565,1.01464 10.9835,1.01464 "
       id="polygon46"
       style="fill:#000000" /></g></svg>