<?xml version="1.0" encoding="UTF-8" standalone="no"?>
<svg
   xmlns:dc="http://purl.org/dc/elements/1.1/"
   xmlns:cc="http://creativecommons.org/ns#"
   xmlns:rdf="http://www.w3.org/1999/02/22-rdf-syntax-ns#"
   xmlns:svg="http://www.w3.org/2000/svg"
   xmlns="http://www.w3.org/2000/svg"
   xmlns:sodipodi="http://sodipodi.sourceforge.net/DTD/sodipodi-0.dtd"
   xmlns:inkscape="http://www.inkscape.org/namespaces/inkscape"
   version="1.1"
   x="0px"
   y="0px"
   viewBox="0 0 100 100"
   enable-background="new 0 0 100 100"
   xml:space="preserve"
   id="svg2"
   inkscape:version="0.91 r13725"
   sodipodi:docname="tram.svg"
   inkscape:export-filename="C:\dev\web\cs\apps\vmg\public\images\osm\tram.png"
   inkscape:export-xdpi="21.6"
   inkscape:export-ydpi="21.6"><metadata
     id="metadata126"><rdf:RDF><cc:Work
         rdf:about=""><dc:format>image/svg+xml</dc:format><dc:type
           rdf:resource="http://purl.org/dc/dcmitype/StillImage" /></cc:Work></rdf:RDF></metadata><defs
     id="defs124" /><sodipodi:namedview
     pagecolor="#ffffff"
     bordercolor="#666666"
     borderopacity="1"
     objecttolerance="10"
     gridtolerance="10"
     guidetolerance="10"
     inkscape:pageopacity="0"
     inkscape:pageshadow="2"
     inkscape:window-width="1280"
     inkscape:window-height="697"
     id="namedview122"
     showgrid="false"
     inkscape:zoom="2.36"
     inkscape:cx="50"
     inkscape:cy="50"
     inkscape:window-x="-8"
     inkscape:window-y="-8"
     inkscape:window-maximized="1"
     inkscape:current-layer="svg2" /><g
     transform="translate(1.2487253,0.5737713)"
     id="g114"><g
       id="g116"><g
         id="g118"><path
           style="clip-rule:evenodd;fill:#000000;fill-rule:evenodd"
           inkscape:connector-curvature="0"
           d="m 63.756,88.732 3.672,7.268 4.989,0 -5.891,-7.268 -2.77,0 z m -23.918,-2.203 -0.361,0 c 0.701,0.002 1.114,0.005 1.114,0.005 l -0.006,-0.005 17.773,0 0,-3.112 -18.52,0 0,3.112 z M 25.624,96 l 4.988,0 3.947,-7.268 -2.769,0 L 25.624,96 Z M 77.248,24.967 c 0,-4.89 -5.477,-6.812 -5.477,-6.812 l -1.399,-3.66 -21.605,-0.026 -0.069,0.066 -0.407,-0.012 -0.407,0.012 -0.069,-0.067 -20.116,-0.024 -1.252,3.684 c 0,0 -3.005,1.861 -5.447,6.84 0,0 0.07,50.548 0.07,53.083 0,0.204 0.042,0.44 0.104,0.685 0.355,3.691 3.1,6.771 6.695,7.424 0.536,0.218 1.062,0.349 1.552,0.349 2.745,0 5.392,0.009 7.191,0.016 l 0,-6.136 25.069,0 0,6.056 3.266,0 -0.007,0.142 c 0,0 0.221,-0.08 4.367,-0.08 0.826,0 1.634,-0.3 2.398,-0.777 2.749,-1.07 4.94,-3.668 5.344,-6.686 0.188,-0.456 0.301,-0.808 0.301,-0.979 0.001,-3.71 -0.102,-53.098 -0.102,-53.098 z M 25.685,61.655 c 0,0 -1.545,-1.11 -1.545,-3.118 L 24.13,33.573 c 0,-2.745 1.588,-3.143 1.588,-3.143 1.723,0 1.562,1.399 1.562,3.121 l 0,26.547 c 0,1.723 0.128,1.557 -1.595,1.557 z m 36.068,-44.032 6.266,0 0,3.177 -6.266,0 0,-3.177 z m -31.407,0 6.267,0 0,3.177 -6.267,0 0,-3.177 z m 9.379,52.852 0,2.079 c 0,0.765 -0.272,1.382 -1.037,1.382 l -4.639,0 c -0.116,0.016 -0.235,0.034 -0.352,0.034 -0.116,0 -0.226,-0.019 -0.34,-0.034 l -0.101,0 c -0.021,0 -0.046,-0.015 -0.064,-0.015 -0.07,-0.016 -0.134,-0.036 -0.199,-0.055 -0.021,-0.009 -0.04,-0.009 -0.064,-0.019 -1.129,-0.337 -2.66,-2.136 -2.66,-3.388 0,-0.05 0.012,-1.301 0.016,-1.347 l 0,1.361 c 0,-0.765 0.315,-2.591 1.08,-2.591 l 1.524,0 c 0.04,-0.004 0.073,-0.014 0.113,-0.014 0.037,0 0.077,0.01 0.116,0.014 l 6.261,0 c 0.766,0.002 0.346,1.828 0.346,2.593 z m 25.654,3.373 c -0.025,0.01 -0.044,0.01 -0.062,0.019 -0.066,0.019 -0.131,0.039 -0.201,0.055 -0.019,0 -0.042,0.015 -0.064,0.015 l -0.102,0 c -0.112,0.016 -0.223,0.034 -0.339,0.034 -0.117,0 -0.235,-0.019 -0.352,-0.034 l -4.639,0 c -0.766,0 -1.039,-0.617 -1.039,-1.382 l 0,-2.079 c 0,-0.765 -0.415,-2.591 0.347,-2.591 l 6.264,0 c 0.036,-0.004 0.077,-0.014 0.113,-0.014 0.041,0 0.074,0.01 0.114,0.014 l 1.524,0 c 0.763,0 1.079,1.826 1.079,2.591 l 0,-1.361 c 0.004,0.046 0.015,1.297 0.015,1.347 0,1.25 -1.529,3.049 -2.658,3.386 z M 68.123,30.16 c 0,0.009 -0.005,0.022 -0.005,0.031 l 0,28.116 c 0,0.013 0.005,0.022 0.005,0.034 l 0,1.561 c 0,0.86 -0.697,1.558 -1.558,1.558 l -3.121,0 c 0,0 0,0 -0.003,0 l -12.449,0 c -0.119,0 -0.229,-0.022 -0.342,-0.034 -0.117,0.012 -0.228,0.034 -0.344,0.034 l -18.381,0 c -0.86,0 -1.558,-0.697 -1.558,-1.558 l 0,-1.228 c -0.012,-0.112 -0.034,-0.221 -0.034,-0.333 l 0,-28.205 c 0,-0.114 0.022,-0.224 0.034,-0.334 l 0,-1.202 c 0,-0.863 0.698,-1.561 1.558,-1.561 l 1.301,0 c 0.076,-0.006 0.149,-0.024 0.226,-0.024 l 16.855,0 c 0.076,0 0.149,0.015 0.227,0.024 l 0.229,0 c 0.076,-0.009 0.149,-0.024 0.229,-0.024 l 14.007,0 c 0.076,0 0.15,0.018 0.226,0.024 l 1.341,0 c 0.86,0 1.558,0.698 1.558,1.561 l 0,1.56 z m 6.032,28.377 c 0,2.008 -1.645,3.118 -1.645,3.118 -1.723,0 -1.594,0.166 -1.594,-1.558 l 0,-26.546 c 0,-1.722 -0.162,-3.121 1.561,-3.121 0,0 1.687,0.398 1.687,3.143 L 74.155,58.537 Z M 58.606,5.083 c 0,0 2.433,-0.226 3.665,1.5 1.237,1.729 0.496,-4.578 -2.222,-4.578 l -23.032,0 c -2.717,0 -3.458,6.307 -2.221,4.578 1.233,-1.726 3.372,-1.5 3.372,-1.5 l 9.647,9.385 0.952,10e-4 9.839,-9.386 z m -10.316,7.105 -0.152,-0.175 0,0.046 -7.293,-6.956 7.691,-0.003 7.294,0.003 -7.39,6.956 0,-0.046 -0.15,0.175 z"
           id="path120" /></g></g></g></svg>